<svg width="24" height="25" viewBox="0 0 24 25" fill="none" xmlns="http://www.w3.org/2000/svg">
<path d="M21.8055 10.5415H21V10.5H12V14.5H17.6515C16.827 16.8285 14.6115 18.5 12 18.5C8.6865 18.5 6 15.8135 6 12.5C6 9.1865 8.6865 6.5 12 6.5C13.5295 6.5 14.921 7.077 15.9805 8.0195L18.809 5.191C17.023 3.5265 14.634 2.5 12 2.5C6.4775 2.5 2 6.9775 2 12.5C2 18.0225 6.4775 22.5 12 22.5C17.5225 22.5 22 18.0225 22 12.5C22 11.8295 21.931 11.175 21.8055 10.5415Z" fill="#FFC107"/>
<path d="M3.15302 7.8455L6.43852 10.255C7.32752 8.054 9.48052 6.5 12 6.5C13.5295 6.5 14.921 7.077 15.9805 8.0195L18.809 5.191C17.023 3.5265 14.634 2.5 12 2.5C8.15902 2.5 4.82802 4.6685 3.15302 7.8455Z" fill="#FF3D00"/>
<path d="M12 22.5001C14.583 22.5001 16.93 21.5116 18.7045 19.9041L15.6095 17.2851C14.6055 18.0456 13.3575 18.5001 12 18.5001C9.39897 18.5001 7.19047 16.8416 6.35847 14.5271L3.09747 17.0396C4.75247 20.2781 8.11347 22.5001 12 22.5001Z" fill="#4CAF50"/>
<path d="M21.8055 10.5415H21V10.5H12V14.5H17.6515C17.2555 15.6185 16.536 16.583 15.608 17.2855L15.6095 17.2845L18.7045 19.9035C18.4855 20.1025 22 17.5 22 12.5C22 11.8295 21.931 11.175 21.8055 10.5415Z" fill="#6366F1"/>
</svg>
