<svg width="25" height="24" viewBox="0 0 25 24" fill="none" xmlns="http://www.w3.org/2000/svg">
<path d="M21.0153 9.72844L13.5153 2.65219C13.5116 2.64899 13.5082 2.64554 13.505 2.64188C13.2289 2.39075 12.869 2.25159 12.4958 2.25159C12.1225 2.25159 11.7627 2.39075 11.4866 2.64188L11.4763 2.65219L3.98469 9.72844C3.83187 9.86896 3.70989 10.0397 3.62646 10.2298C3.54303 10.4199 3.49997 10.6252 3.5 10.8328V19.5C3.5 19.8978 3.65804 20.2794 3.93934 20.5607C4.22064 20.842 4.60218 21 5 21H9.5C9.89782 21 10.2794 20.842 10.5607 20.5607C10.842 20.2794 11 19.8978 11 19.5V15H14V19.5C14 19.8978 14.158 20.2794 14.4393 20.5607C14.7206 20.842 15.1022 21 15.5 21H20C20.3978 21 20.7794 20.842 21.0607 20.5607C21.342 20.2794 21.5 19.8978 21.5 19.5V10.8328C21.5 10.6252 21.457 10.4199 21.3735 10.2298C21.2901 10.0397 21.1681 9.86896 21.0153 9.72844ZM20 19.5H15.5V15C15.5 14.6022 15.342 14.2206 15.0607 13.9393C14.7794 13.658 14.3978 13.5 14 13.5H11C10.6022 13.5 10.2206 13.658 9.93934 13.9393C9.65804 14.2206 9.5 14.6022 9.5 15V19.5H5V10.8328L5.01031 10.8234L12.5 3.75L19.9906 10.8216L20.0009 10.8309L20 19.5Z" fill="#F5F5F5"/>
</svg>
