<svg width="33" height="33" viewBox="0 0 33 33" fill="none" xmlns="http://www.w3.org/2000/svg">
<path d="M22.75 4.5C20.1688 4.5 17.9088 5.61 16.5 7.48625C15.0912 5.61 12.8313 4.5 10.25 4.5C8.19528 4.50232 6.22539 5.31958 4.77248 6.77248C3.31958 8.22539 2.50232 10.1953 2.5 12.25C2.5 21 15.4738 28.0825 16.0262 28.375C16.1719 28.4533 16.3346 28.4943 16.5 28.4943C16.6654 28.4943 16.8281 28.4533 16.9737 28.375C17.5262 28.0825 30.5 21 30.5 12.25C30.4977 10.1953 29.6804 8.22539 28.2275 6.77248C26.7746 5.31958 24.8047 4.50232 22.75 4.5ZM16.5 26.35C14.2175 25.02 4.5 18.9613 4.5 12.25C4.50198 10.7256 5.10842 9.26423 6.18633 8.18633C7.26423 7.10842 8.72561 6.50198 10.25 6.5C12.6812 6.5 14.7225 7.795 15.575 9.875C15.6503 10.0584 15.7785 10.2153 15.9432 10.3257C16.1079 10.4361 16.3017 10.495 16.5 10.495C16.6983 10.495 16.8921 10.4361 17.0568 10.3257C17.2215 10.2153 17.3497 10.0584 17.425 9.875C18.2775 7.79125 20.3188 6.5 22.75 6.5C24.2744 6.50198 25.7358 7.10842 26.8137 8.18633C27.8916 9.26423 28.498 10.7256 28.5 12.25C28.5 18.9513 18.78 25.0188 16.5 26.35Z" fill="#F5F5F5"/>
</svg>
